<svg xmlns="http://www.w3.org/2000/svg" viewBox="0 0 1024 1024" role="img" aria-label="交易纪律工作台图标">
  <defs>
    <linearGradient id="bg" x1="144" y1="92" x2="884" y2="932" gradientUnits="userSpaceOnUse">
      <stop offset="0" stop-color="#101827"/>
      <stop offset="0.52" stop-color="#18263a"/>
      <stop offset="1" stop-color="#26364a"/>
    </linearGradient>
    <linearGradient id="shield" x1="336" y1="212" x2="706" y2="772" gradientUnits="userSpaceOnUse">
      <stop offset="0" stop-color="#fff8e6"/>
      <stop offset="1" stop-color="#f5e5c1"/>
    </linearGradient>
    <filter id="shadow" x="-20%" y="-20%" width="140%" height="140%">
      <feDropShadow dx="0" dy="26" stdDeviation="32" flood-color="#06101e" flood-opacity="0.42"/>
    </filter>
  </defs>
  <rect x="48" y="48" width="928" height="928" rx="216" fill="url(#bg)"/>
  <path d="M198 250c117-84 249-126 399-126 85 0 166 14 244 43" fill="none" stroke="#ffffff" stroke-opacity=".08" stroke-width="44" stroke-linecap="round"/>
  <g filter="url(#shadow)">
    <path d="M512 184 716 274c20 9 33 29 33 51 0 198-84 348-237 454-153-106-237-256-237-454 0-22 13-42 33-51l204-90Z" fill="url(#shield)" stroke="#f2b84b" stroke-width="34" stroke-linejoin="round"/>
    <path d="M348 617 454 536l92 48 147-183" fill="none" stroke="#b42318" stroke-width="62" stroke-linecap="round" stroke-linejoin="round"/>
    <circle cx="348" cy="617" r="34" fill="#b42318"/>
    <circle cx="454" cy="536" r="28" fill="#b42318"/>
    <circle cx="546" cy="584" r="28" fill="#b42318"/>
    <circle cx="693" cy="401" r="34" fill="#b42318"/>
    <path d="M388 708h246" fill="none" stroke="#18263a" stroke-opacity=".28" stroke-width="34" stroke-linecap="round"/>
    <path d="M392 310h240" fill="none" stroke="#18263a" stroke-opacity=".2" stroke-width="28" stroke-linecap="round"/>
  </g>
  <path d="M760 707c41-51 70-112 86-183" fill="none" stroke="#38bdf8" stroke-opacity=".55" stroke-width="28" stroke-linecap="round"/>
</svg>
